<?xml version="1.0" encoding="UTF-8"?>
<svg id="Isotipo_Black" data-name="Isotipo Black" xmlns="http://www.w3.org/2000/svg" viewBox="0 0 1498.05 1718">
  <defs>
    <style>
      .cls-1 {
        fill: #fff;
      }
    </style>
  </defs>
  <path class="cls-1" d="M940.93,603.25c-6.88,19.27-18.03,32.89-24.91,30.43-6.89-2.45-6.89-20.06-.02-39.32,6.88-19.27,18.03-32.89,24.91-30.43,6.89,2.45,6.89,20.06,.02,39.32Z"/>
  <ellipse cx="591.49" cy="1237.82" rx="21.05" ry="58.9"/>
  <path d="M1255.8,1096.73c-5.62-30.04-21.02-54.98-41.99-76.67-2.97-3.07-8.39-8.74-11.42-11.49,7.56,18.28,11.64,37.95,12.28,57.71,1.56,48.09-17.2,98.23-55.81,128.22-17.83,13.85-38.72,21.01-59.6,28.71-25.53,9.42-52.93,13.65-80.12,12.64,7.67-35.69,10.37-74.12,2.04-109.65-24.3-136.26-140.68-224.75-257.36-285.27-41.18-21.36-80.33-42.71-117.43-64.06-37.13-21.35-67.36-44.99-90.74-70.91-23.39-25.92-35.07-57.18-35.07-93.78,0-29.48,8.12-62.27,24.4-98.37,42.5-94.33,123.67-155.51,223.15-181.17,36.48-9.41,76.88-12.98,110.43,4.16,71.41,36.47,35.98,118.06,13.35,173.2-11.69,28.47-21.87,55.92-30.5,82.35-8.64,26.45-12.95,50.33-12.95,71.68s5.57,38.38,16.77,51.08c11.18,12.72,27.94,21.61,50.32,26.69,17.28-27.45,35.32-60.48,54.14-99.12,18.8-38.63,34.81-79.31,48.04-122,13.2-42.71,19.82-82.86,19.82-120.48,0-47.78-14.24-86.4-42.7-115.9-28.47-29.48-77.77-44.23-147.92-44.23s-128.1,12.97-183,38.89c-54.91,25.93-101.68,59.74-140.3,101.41-38.65,41.7-68.39,86.17-89.22,133.44-20.85,47.28-31.26,91.76-31.26,133.44,0,46.78,11.94,86.93,35.84,120.47,20.33,28.54,45.3,53.52,73.13,74.73,31.28,23.84,66.57,42.8,100.4,63.12,17.38,10.45,34.76,20.89,52.14,31.33,39.26,23.59,78.81,47.39,112.56,78.35,41.6,38.17,74.05,89.52,77.33,147.02-8.84-7.88-17.58-15.88-26.43-23.69-31.85-28.14-64.19-55.84-98.5-80.96-67.16-49.18-144.15-89.41-228.93-92.71-65.34-2.55-132.47,16.69-184.36,57.03-6.86,5.33-13.21,10.98-19.08,16.93-39.97,40.52-57.27,94.64-57.27,152.81,0,62.02,16.78,113.86,50.32,155.54,107.1,133.06,289.01,146.55,445.66,118.77,66.87-11.86,134.59-31.08,187.93-73.13,27.69-21.83,50.22-49.42,66.98-80.31,6.72,.02,13.45-.14,20.16-.5,20.3-1.08,40.23-3.61,60.03-7.59,24.29-4.88,47.16-10.59,69.95-20.2,20.83-8.78,40.12-21.19,56.77-36.48,6.49-5.96,12.59-12.36,18.21-19.15,13.23-15.98,23.83-34.1,31.41-53.4,9.89-25.19,13.43-51.6,8.4-78.5Zm-314.89-532.8c6.89,2.45,6.89,20.06,.02,39.32-6.88,19.27-18.03,32.89-24.91,30.43-6.89-2.45-6.89-20.06-.02-39.32,6.88-19.27,18.03-32.89,24.91-30.43Zm-121.94,719.6c-19.7,26.43-47.06,46.22-77.72,58.06-34.31,13.25-73.39,14.42-109.7,11.96-30.92-2.11-61.58-8.09-91.04-17.75-6.06-1.99-12.08-4.14-18.04-6.44-20.57-7.95-40.43-17.75-59.21-29.31-31.09-19.14-60.97-45.54-69.26-81.1-7.93-34.04,6.59-71.17,32.72-94.39,26.12-23.22,62.26-33.33,97.19-31.93,34.92,1.4,68.74,13.52,99.42,30.28,34.62,18.91,65.19,43.2,95.02,68.41,29.95,25.3,59.79,51.08,93.3,71.65,1.26,.77,15.11,9.13,15.28,8.86-2.5,4-5.14,7.91-7.96,11.7Z"/>
</svg>