<?xml version="1.0" encoding="UTF-8"?>
<svg id="Imagotipo" xmlns="http://www.w3.org/2000/svg" viewBox="0 0 2532 1718">
  <defs>
    <style>
      .cls-1 {
        fill: #fff;
      }

      .cls-2 {
        fill: #8c0000;
      }
    </style>
  </defs>
  <path class="cls-1" d="M941.21,603.12c-6.87,19.26-18.02,32.88-24.9,30.42-6.88-2.45-6.89-20.06-.01-39.32,6.87-19.26,18.02-32.88,24.9-30.43,6.88,2.46,6.89,20.06,.01,39.33Z"/>
  <g>
    <path d="M1131.45,767.38c-5.98,0-10.12-1.17-12.4-3.51-2.28-2.34-3.48-5.36-3.59-9.06,0-3.15,.62-6.94,1.88-11.34,1.25-4.41,2.53-8.62,3.83-12.65,2.61-7.73,5.33-15.34,8.16-22.85,2.83-7.51,5.68-14.74,8.57-21.71,2.88-6.96,5.65-13.6,8.32-19.91,2.66-6.31,5.14-12.13,7.42-17.47-8.69,.13-17.37,.58-26.05,.9-2.57,.1-5.16,.2-7.67,.75-5.5,1.21-8.48,4.92-11.59,9.32-3.55,5.01-6.13,10.66-9.82,15.57-3.69,4.91-8.9,9.18-15.01,9.68,5.37-2.71,8.81-8.18,11.04-13.77s3.52-11.53,6.04-17c4.92-10.66,15.67-15.48,26.8-17.21,11.14-1.73,22.46-1.79,33.7-1.22,11.33,.58,22.59,2.01,33.91,2.8,2,.14,4,.26,5.99,.36,1.03,.05,2.06,.09,3.09,.13,.73,.02,2.26,.37,2.92,.08-1.12,.51-1.76,1.54-2.74,2.23-.9,.63-1.87,1.16-2.85,1.67-2.18,1.13-4.48,2.01-6.83,2.69-4.99,1.45-10.28,2.23-15.45,2.54-5.44,.33-10.61,.49-15.5,.49-5.22,12.84-10.01,26.17-14.36,39.99-4.35,13.82-8.38,27.48-12.07,40.97-1.42,5.22-2.59,9.66-3.51,13.3-.93,3.65-1.61,6.97-2.04,9.96-.44,2.99-.65,6.17-.65,9.55,0,.54,.03,1.17,.08,1.88,.05,.71,.19,1.66,.41,2.86Z"/>
    <path d="M1266.57,724.29c-2.28,4.79-5.04,9.16-8.24,13.13-3.22,3.97-6.43,7.16-9.63,9.55-3.22,2.39-6.02,3.59-8.41,3.59-1.2,0-2.23-.38-3.1-1.14s-1.31-2.12-1.31-4.08c0-2.39,.58-4.93,1.72-7.6,1.14-2.67,2.28-5.52,3.43-8.56,1.14-3.05,1.71-6.31,1.71-9.79,0-2.5-.44-4.98-1.31-7.43-.87-2.45-2.34-4.52-4.41-6.2-2.07-1.69-4.95-2.52-8.65-2.52-4.35,0-8.21,1.16-11.59,3.5-3.37,2.34-6.31,5.28-8.81,8.81-2.5,3.54-4.6,7.13-6.28,10.77-1.7,3.65-3.02,6.83-4,9.55-.98,2.72-1.69,4.41-2.12,5.06,0-.54-.03-1.12-.08-1.72-.07-.6-.09-1.16-.09-1.71,0-2.72,.16-5.5,.49-8.32,.33-2.83,.9-5.85,1.72-9.06s1.93-6.66,3.34-10.36c4.03-2.39,7.92-5.55,11.67-9.47,3.75-3.92,7.22-8.25,10.44-12.98,3.2-4.73,6-9.54,8.4-14.44,2.39-4.9,4.26-9.5,5.64-13.8,1.35-4.3,2.03-7.91,2.03-10.85,0-2.72-.6-5.33-1.79-7.83-1.2-2.5-2.94-3.75-5.22-3.75-2.61,0-5.62,1.85-9.05,5.55-3.43,3.7-7.02,8.62-10.77,14.77-3.75,6.15-7.41,12.98-10.93,20.49-3.55,7.51-6.76,15.18-9.63,23.01-.57,1.55-1.12,3.07-1.63,4.58-6.24,.91-12.61,.92-18.84,.03,5.03,1.8,10.07,3.59,15.34,4.41,.64,.1,1.28,.18,1.94,.24-1.44,4.5-2.65,8.87-3.66,13.1-1.7,7.07-2.53,13.11-2.53,18.12s.51,9.19,1.56,12.89c1.02,3.69,2.74,5.55,5.13,5.55,2.18,0,4.1-1.07,5.8-3.19,1.68-2.12,3.29-4.86,4.81-8.24,1.52-3.37,3.05-6.94,4.57-10.7,1.52-3.75,3.15-7.31,4.9-10.69,1.74-3.37,3.7-6.13,5.87-8.25,2.18-2.12,4.62-3.18,7.34-3.18,1.63,0,3.02,.49,4.17,1.47,1.14,.98,1.71,2.77,1.71,5.39,0,2.29-.38,4.84-1.14,7.67-.76,2.83-1.54,5.63-2.36,8.4-.82,2.77-1.23,5.31-1.23,7.6,0,3.26,1.09,5.98,3.26,8.16,2.18,2.18,5.33,3.26,9.46,3.26,4.68,0,9.03-1.36,13.05-4.08,4.03-2.72,7.72-6.37,11.1-10.94,3.37-4.57,6.31-9.58,8.81-15.02l-2.61-2.77Zm-55.07-42.27c2.77-5.66,5.55-10.75,8.32-15.27,2.77-4.52,5.22-8.11,7.34-10.77,2.12-2.67,3.5-3.99,4.16-3.99v.49c-.11,1.52-.65,3.7-1.63,6.53-.98,2.83-2.32,6.01-3.99,9.54-1.7,3.54-3.66,7.18-5.87,10.94-2.24,3.75-4.66,7.38-7.27,10.86-2.61,3.48-5.33,6.47-8.16,8.98,1.96-5.88,4.33-11.64,7.1-17.3Z"/>
    <path d="M1281.09,760.36c-6.96,0-12.32-1.88-16.07-5.63-3.75-3.75-5.63-8.46-5.63-14.12,0-4.79,1.22-9.88,3.67-15.26,2.45-5.39,5.74-10.45,9.87-15.18,4.13-4.73,8.7-8.57,13.71-11.51,5-2.94,10.01-4.41,15.01-4.41,2.83,0,5.52,.73,8.08,2.2,2.55,1.47,3.83,4.38,3.83,8.73s-1.2,8-3.59,11.59c-2.39,3.59-5.6,6.8-9.63,9.63-4.03,2.83-8.46,5.14-13.3,6.94-4.84,1.8-9.71,2.97-14.6,3.51-.11,.44-.19,.9-.24,1.39-.06,.49-.08,1.28-.08,2.37,0,.55,.08,1.5,.24,2.86,.16,1.36,.62,2.8,1.39,4.32,.76,1.53,2.01,2.83,3.75,3.92,1.74,1.09,4.13,1.63,7.18,1.63,4.57,0,9.16-1.28,13.79-3.84,4.62-2.56,8.97-5.96,13.06-10.2,2.82-2.93,5.44-6.07,7.78-9.4,1.17-1.67,2.27-3.4,3.28-5.17,.5-.88,.98-1.78,1.43-2.69,.39-.77,.69-1.84,1.23-2.49-.44,4.68-1.74,9.33-3.64,13.62-1.96,4.43-4.63,8.17-7.95,11.68-4.63,4.9-9.74,8.7-15.34,11.43-5.6,2.72-11.34,4.08-17.22,4.08Zm-6.85-29.54c2.83-.33,5.98-1.31,9.46-2.94,3.48-1.63,6.83-3.7,10.04-6.2,3.21-2.5,5.85-5.25,7.91-8.24,2.07-2.99,3.1-6.01,3.1-9.06,0-1.2-.22-2.01-.65-2.45-.44-.43-1.14-.65-2.12-.65-2.5,0-5.11,.9-7.83,2.69-2.72,1.8-5.38,4.14-8,7.02-2.61,2.88-4.95,6.07-7.02,9.55-2.07,3.48-3.7,6.91-4.9,10.28Z"/>
  </g>
  <g>
    <path d="M1238.57,817.32c-.85-2.85-2.09-5.62-3.98-7.91s-4.5-4.07-7.42-4.6c-2.92-.53-6.15,.31-8.18,2.48-2.03,2.17-2.61,5.69-1.07,8.23,.93,1.54,2.47,2.58,3.8,3.8,3.91,3.61,5.85,9.14,5.35,14.41-.53,5.51-1.31,10.96-2.82,16.33-1.9,6.75-4.49,13.6-7.75,20.57-3.26,6.97-6.91,13.69-10.93,20.16-4.03,6.48-8.16,12.3-12.4,17.46-4.24,5.17-8.35,9.25-12.32,12.24-3.97,2.99-7.48,4.49-10.52,4.49-1.63,0-2.75-.49-3.35-1.47-.6-.98-.9-2.56-.9-4.73,0-3.92,.62-8.13,1.88-12.65,1.25-4.51,2.8-9.08,4.65-13.71,1.85-4.62,3.64-9,5.39-13.14,2.17-5.11,3.73-8.98,4.65-11.59,.92-2.61,1.39-4.46,1.39-5.55,0-2.07-1.14-4.24-3.43-6.53-2.28-2.28-5.49-3.43-9.63-3.43-.55,3.7-1.69,8.03-3.43,12.98-1.74,4.95-3.92,10.18-6.53,15.67-2.61,5.5-5.47,10.85-8.57,16.08-3.1,5.22-6.34,9.96-9.71,14.2-3.37,4.24-6.72,7.62-10.04,10.12-3.32,2.5-6.45,3.75-9.38,3.75-1.42,0-2.37-.41-2.86-1.22-.49-.82-.73-2.26-.73-4.32,0-4.35,.57-8.73,1.71-13.14,1.14-4.41,2.45-8.7,3.92-12.89,1.47-4.19,2.75-8.02,3.83-11.51,3.04-9.57,5.57-18.42,7.59-26.52,2.01-8.11,3.02-15.91,3.02-23.42,0-10.01-1.93-17.74-5.79-23.18-3.86-5.44-9.49-8.16-16.89-8.16-4.35,0-8.43,.9-12.24,2.69-10.48,4.94-16.39,13.61-16.37,25.27,0,7.24,1.71,14.39,1.89,21.63,.18,7.24-1.49,15.05-6.89,19.88,7.3-3.56,12.74-10.7,14.23-18.69,1.24-6.66-.14-13.49-.22-20.27-.07-5.33,.88-11.03,4.18-15.37,3.34-4.38,6.13-8.62,12.32-8.62,2.61,0,4.65,.79,6.12,2.37,1.47,1.58,2.47,3.89,3.02,6.94,.54,3.05,.82,6.8,.82,11.26,0,7.62-.63,14.8-1.88,21.55-1.25,6.75-2.83,13.25-4.73,19.5-1.9,6.26-3.83,12.6-5.79,19.02-2.61,8.49-4.46,14.94-5.55,19.34-1.09,4.41-1.63,7.97-1.63,10.69,0,3.26,.6,5.88,1.79,7.83,1.2,1.96,2.69,3.4,4.49,4.33,1.79,.92,3.56,1.55,5.3,1.88,1.74,.33,3.15,.49,4.24,.49,5.33,0,10.69-2.04,16.07-6.12,5.39-4.08,10.74-9.49,16.07-16.24-.44,1.42-.82,2.83-1.14,4.24-.33,1.42-.49,2.78-.49,4.08,0,2.83,.62,5.3,1.88,7.43,1.25,2.12,2.99,3.75,5.22,4.9,2.23,1.14,4.76,1.71,7.59,1.71,5.11,0,10.5-1.82,16.15-5.47,5.66-3.65,11.28-8.57,16.89-14.77,5.6-6.2,10.88-13.14,15.83-20.81,4.95-7.67,9.35-15.56,13.22-23.67,3.86-8.11,6.91-15.91,9.14-23.42,2.67-9,4.71-17.57,1.92-26.88Z"/>
    <path d="M1606.89,847.86c1.69,1.04,3.56,1.55,5.63,1.55,2.94,0,5.65-1.06,8.16-3.18,2.5-2.12,3.75-4.32,3.75-6.61s-.68-3.86-2.04-4.73c-1.36-.87-3.02-1.31-4.98-1.31-3.05,0-5.98,.93-8.81,2.78-2.83,1.85-4.24,4.08-4.24,6.69,0,2.18,.84,3.78,2.53,4.81Z"/>
    <path d="M1769.5,888.67c-4.43,8.98-10.66,17.22-18.77,23.18-3.48,2.56-6.91,4.54-10.28,5.96,2.28-6.2,4.35-12.27,6.2-18.2,2.11-6.77,3.84-13.67,5.05-20.67,.29-1.65,.39-3.2,.39-4.87-.11-3.75-1.24-8.39-4.45-10.7-1.74-1.25-4.35-1.88-7.83-1.88-4.79,0-9.79,1.12-15.01,3.35-5.22,2.23-10.12,5.33-14.69,9.3-4.57,3.97-8.3,8.49-11.18,13.55-2.48,4.36-3.89,8.98-4.23,13.86,0,0,0,0,0,.01-2.56,3.86-5.25,7.05-8.08,9.55-2.83,2.5-5.55,3.75-8.16,3.75-.98,0-1.88-.35-2.69-1.06-.82-.71-1.22-1.93-1.22-3.67,0-2.39,.51-4.84,1.55-7.35,1.03-2.5,2.09-5.17,3.18-8,1.09-2.83,1.63-5.88,1.63-9.14,0-3.81-1.12-7.29-3.35-10.45-2.23-3.15-5.69-4.73-10.36-4.73-3.7,0-7.37,1.06-11.01,3.18-3.65,2.12-7.15,4.87-10.53,8.24-3.37,3.37-6.47,6.96-9.3,10.77,.87-3.26,1.55-6.17,2.04-8.73,.49-2.56,.73-4.49,.73-5.79,0-3.26-1.9-4.9-5.71-4.9-1.74,0-3.4,.44-4.98,1.31-1.58,.87-2.75,1.74-3.51,2.61,0,3.48-.55,7.35-1.63,11.59-.59,2.29-1.23,4.52-1.91,6.69-3.66,6.42-7.21,11.11-10.66,14.04-4.35,3.7-8.38,5.55-12.07,5.55-2.39,0-4.22-.57-5.47-1.71-1.25-1.14-1.88-3.45-1.88-6.94s.84-7.37,2.53-11.34c1.69-3.97,3.64-7.81,5.87-11.51,2.23-3.7,4.19-6.96,5.87-9.79,1.68-2.83,2.53-4.95,2.53-6.37,0-1.52-.49-2.69-1.47-3.51-.98-.82-2.12-1.22-3.43-1.22-2.39,0-4.79,1.17-7.18,3.51-2.39,2.34-4.62,5.36-6.69,9.06-2.07,3.7-3.89,7.65-5.47,11.83-.95,2.53-1.76,4.97-2.45,7.36-.7,1.1-1.48,2.23-2.36,3.41-2.07,2.77-4.46,5.41-7.18,7.92-2.72,2.5-5.49,4.54-8.32,6.12-2.83,1.58-5.55,2.37-8.16,2.37-1.09,0-2.04-.24-2.86-.73-.82-.49-1.22-1.49-1.22-3.02,0-2.07,.71-4.51,2.12-7.35,1.41-2.83,2.83-5.88,4.24-9.14,1.41-3.26,2.12-6.47,2.12-9.63,0-3.48-.87-6.37-2.61-8.65-1.74-2.29-3.75-4.19-6.04-5.71-2.28-1.52-4.32-2.86-6.12-4-1.79-1.14-2.75-2.31-2.86-3.51,.22-.65,.57-1.69,1.06-3.1,.49-1.41,.73-2.39,.73-2.94s-.3-1.55-.9-3.02c-.6-1.47-1.55-2.2-2.86-2.2-1.63,0-3.32,1.25-5.06,3.75-1.74,2.5-2.61,5.17-2.61,8,0,1.85,.54,3.32,1.63,4.41-2.28,6.42-4.68,12.24-7.18,17.46-2.05,4.27-3.76,7.73-5.15,10.4-2.1,3.22-4.48,6.23-7.17,9.02-4.08,4.24-8.43,7.65-13.05,10.2-4.63,2.56-9.22,3.84-13.79,3.84-3.05,0-5.44-.54-7.18-1.63-1.74-1.09-2.99-2.39-3.75-3.92-.76-1.52-1.22-2.96-1.39-4.32-.16-1.36-.24-2.31-.24-2.86,0-1.09,.03-1.88,.08-2.37,.05-.49,.13-.95,.24-1.39,4.9-.54,9.76-1.71,14.6-3.51,4.84-1.8,9.27-4.11,13.3-6.94,4.02-2.83,7.23-6.04,9.63-9.63,2.39-3.59,3.59-7.45,3.59-11.59,0-4.35-1.28-7.26-3.83-8.73-2.56-1.47-5.25-2.2-8.08-2.2-5,0-10.01,1.47-15.01,4.41-5,2.94-9.57,6.77-13.71,11.51-4.14,4.73-7.42,9.79-9.87,15.18-1.56,3.44-2.62,6.76-3.19,9.96-.59,.79-1.18,1.55-1.79,2.28-3.05,3.65-6.04,6.39-8.97,8.24-2.94,1.85-5.6,2.77-8,2.77-1.2,0-2.04-.46-2.53-1.39-.49-.92-.73-2.69-.73-5.3,0-5.88,.9-12.16,2.69-18.85,1.79-6.69,4.08-13.49,6.85-20.4,2.77-6.91,5.76-13.65,8.97-20.24,3.21-6.58,6.2-12.7,8.97-18.36,2.77-5.66,5.06-10.53,6.85-14.61,1.79-4.08,2.69-7.04,2.69-8.9,0-1.41-.46-2.58-1.39-3.51-.93-.92-1.99-1.39-3.18-1.39-1.96,0-4.11,1.39-6.45,4.16-2.34,2.77-4.79,6.5-7.34,11.18-2.56,4.68-5.14,10.01-7.75,16-2.61,5.99-5.22,12.22-7.83,18.69-1.53,3.8-3.02,7.54-4.47,11.24-.64-.96-1.67-1.61-2.72-2.11-6.69-3.19-15.21-1.34-21.53,1.89-4.46,2.29-8.68,5.28-12.65,8.98-3.97,3.7-7.45,7.78-10.44,12.24-2.99,4.46-5.36,8.92-7.1,13.38-.4,1.04-.76,2.05-1.07,3.04-.47,.76-.96,1.51-1.46,2.26-2.56,3.86-5.25,7.05-8.08,9.55-2.83,2.5-5.55,3.75-8.16,3.75-.98,0-1.87-.36-2.69-1.07s-1.23-1.93-1.23-3.67c0-2.39,.52-4.84,1.56-7.35,1.03-2.5,2.09-5.17,3.18-8,1.09-2.83,1.63-5.88,1.63-9.14,0-3.81-1.11-7.29-3.34-10.45-2.23-3.16-5.69-4.73-10.37-4.73-3.7,0-7.36,1.06-11.01,3.18-3.64,2.12-7.16,4.87-10.53,8.25-3.37,3.37-6.47,6.96-9.3,10.77,.87-3.26,1.56-6.18,2.05-8.74,.49-2.56,.73-4.48,.73-5.79,0-3.26-1.9-4.9-5.71-4.9-1.74,0-3.39,.44-4.97,1.31-1.58,.87-2.75,1.74-3.51,2.61,0,3.48-.54,7.35-1.63,11.59-.41,1.6-.84,3.17-1.31,4.71-4.22,7.39-8.38,12.75-12.48,16.09-4.73,3.86-8.41,5.8-11.02,5.8-1.74,0-2.99-.63-3.75-1.88-.76-1.25-1.14-2.58-1.14-3.99,0-1.85,.47-3.79,1.39-5.8,.92-2.01,2.01-4.03,3.26-6.04,1.09-1.74,2.05-3.36,2.88-4.86,2.95-4.59,5.24-9.97,5.74-15.41,.34-3.69-.87-7.86-3.74-10.16-.51-.51-1.08-1.01-1.71-1.47-3.26-2.39-7.23-3.59-11.91-3.59s-8.92,1.09-13.38,3.26c-4.46,2.18-8.65,5.03-12.56,8.56-3.92,3.54-7.4,7.49-10.44,11.84-3.05,4.35-5.44,8.76-7.18,13.22-1.73,4.46-2.61,8.6-2.61,12.4,0,4.79,1.34,8.38,4,10.77,2.67,2.38,5.79,3.59,9.38,3.59,4.13,0,8.03-1.53,11.67-4.57,3.64-3.05,7.64-7.18,11.99-12.4v.82c.22,3.26,1.41,6.31,3.59,9.14,2.18,2.83,5.49,4.24,9.95,4.24,4.13,0,8.21-1.28,12.24-3.84,3.31-2.1,6.49-4.86,9.54-8.29-1.13,2.75-1.76,4.41-1.87,4.95,1.31,1.74,2.88,2.96,4.73,3.67,1.85,.71,3.81,1.07,5.87,1.07,2.07-3.48,4.51-7.4,7.34-11.75,2.83-4.35,5.85-8.54,9.06-12.57,3.21-4.03,6.53-7.38,9.95-10.04,3.43-2.67,6.77-3.99,10.03-3.99,1.52,0,2.86,.46,4,1.38,1.14,.92,1.71,2.59,1.71,4.98s-.38,4.68-1.14,7.18-1.52,4.97-2.28,7.42c-.76,2.45-1.14,4.77-1.14,6.94,0,3.26,1.12,5.95,3.35,8.07,2.23,2.12,5.46,3.19,9.7,3.19s8.3-1.34,11.84-4c2.8-2.11,5.39-4.77,7.78-7.96,.14,2.88,.87,5.3,2.17,7.23,1.47,2.18,3.26,3.78,5.39,4.82,2.12,1.03,4.21,1.55,6.28,1.55,3.26,0,6.69-1.09,10.28-3.26,3.59-2.18,7.26-5.2,11.01-9.06,3.75-3.86,7.32-8.24,10.69-13.14-.33,1.74-.63,3.51-.9,5.3-.27,1.8-.41,3.57-.41,5.3,0,3.81,.87,7.13,2.61,9.96,1.74,2.83,4.84,4.24,9.3,4.24,4.13,0,8.32-1.28,12.56-3.84,3.96-2.39,7.68-5.66,11.17-9.8,.59,4.26,2.37,7.92,5.4,10.95,3.75,3.75,9.11,5.63,16.07,5.63,5.87,0,11.61-1.36,17.22-4.08,5.6-2.72,10.71-6.53,15.34-11.43,2.41-2.55,4.58-5.32,6.53-8.31l.08,.15c1.85-3.15,4.27-7.53,7.26-13.14,2.99-5.6,5.68-11.4,8.08-17.38,2.17,1.09,4.08,2.48,5.71,4.16,1.63,1.69,2.45,3.78,2.45,6.28s-.79,5.61-2.37,8.98c-1.58,3.37-3.13,6.8-4.65,10.28-1.52,3.48-2.28,6.75-2.28,9.79,0,3.59,1.25,6.45,3.75,8.57,2.5,2.12,5.76,3.18,9.79,3.18,4.9,0,9.73-1.44,14.52-4.33,4.79-2.88,9.14-6.58,13.05-11.1,.08-.09,.15-.19,.23-.28-.05,.64-.07,1.25-.07,1.83,0,4.03,1.2,7.46,3.59,10.28,2.39,2.83,5.98,4.24,10.77,4.24,6.74,0,13.05-2.67,18.93-8,1.07-.97,2.09-2.03,3.09-3.14-.88,2.16-1.36,3.49-1.46,3.96,1.31,1.74,2.88,2.96,4.73,3.67,1.85,.71,3.81,1.06,5.87,1.06,2.07-3.48,4.51-7.4,7.34-11.75,2.83-4.35,5.85-8.54,9.06-12.57,3.21-4.02,6.53-7.37,9.95-10.04,3.43-2.67,6.77-4,10.04-4,1.52,0,2.86,.46,4,1.39,1.14,.93,1.71,2.59,1.71,4.98s-.38,4.68-1.14,7.18c-.76,2.5-1.53,4.98-2.28,7.43-.76,2.45-1.14,4.76-1.14,6.94,0,3.26,1.11,5.96,3.35,8.08,2.23,2.12,5.47,3.18,9.71,3.18s8.29-1.33,11.83-4c2.97-2.24,5.71-5.11,8.23-8.59,.58,2.81,1.69,5.22,3.36,7.2,2.56,3.05,6.01,4.57,10.36,4.57s8.62-1.58,12.81-4.73c4.19-3.15,8.18-7.13,11.99-11.92-.98,3.92-2.01,7.56-3.1,10.94-1.09,3.37-2.23,6.53-3.43,9.47-3.59,1.74-7.29,3.59-11.1,5.55-3.81,1.96-7.37,4.11-10.69,6.45-3.32,2.34-5.98,4.9-8,7.67-2.01,2.78-3.02,5.9-3.02,9.39,0,3.7,1.17,6.37,3.51,8,2.34,1.63,4.87,2.45,7.59,2.45,4.46,0,8.62-1.77,12.48-5.3,3.86-3.54,7.51-8.27,10.93-14.2,3.43-5.93,6.61-12.49,9.55-19.67,3.59-1.63,7.51-3.95,11.75-6.94,3.34-2.36,6.45-5.04,9.31-7.97,1.76-1.81,3.27-3.58,4.62-5.73,1.33-2.13,2.53-4.35,3.57-6.63s1.94-4.64,2.67-7.04c.37-1.2,.7-2.41,.99-3.64,.26-1.11,.3-2.49,.72-3.54-.74,1.86-1.56,3.7-2.45,5.5Zm-287.2-3.18c2.07-3.48,4.41-6.66,7.02-9.55,2.61-2.88,5.28-5.22,8-7.02,2.72-1.8,5.33-2.69,7.83-2.69,.98,0,1.69,.22,2.12,.65,.43,.44,.65,1.25,.65,2.45,0,3.05-1.04,6.07-3.1,9.06-2.07,2.99-4.71,5.74-7.91,8.24-3.21,2.5-6.56,4.57-10.04,6.2-3.48,1.63-6.64,2.61-9.46,2.94,1.2-3.37,2.83-6.8,4.9-10.28Zm-207.58,7.54c-.05,.07-.1,.14-.15,.21-2.83,3.86-5.79,7.65-8.89,11.35-3.1,3.7-6.18,6.77-9.23,9.22-3.05,2.45-5.82,3.68-8.32,3.68s-3.75-1.74-3.75-5.22c0-3.05,.65-6.47,1.96-10.28,1.31-3.81,3.1-7.7,5.38-11.68,2.28-3.97,4.87-7.62,7.76-10.94,2.88-3.32,5.9-6.01,9.05-8.07,3.15-2.07,6.26-3.1,9.3-3.1,1.66,0,3.59,.28,4.78,1.54,1.12,1.19,1.26,2.92,1.29,4.48,.04,1.76-.21,3.53-.7,5.22-.7,2.45-1.91,4.75-3.43,6.79-1.69,2.26-3.39,4.53-5.06,6.81Zm161.89-23.33c-.23,.55-.46,1.1-.68,1.65-.46,1.1-.91,2.2-1.38,3.29-.93,2.19-1.89,4.37-2.93,6.51-.07,.15-.15,.3-.22,.45-1.81,3.67-3.81,7.25-6.05,10.69-.14,.21-.27,.42-.41,.63-4.3,6.48-8.49,11.43-12.56,14.85-4.08,3.43-7.59,5.14-10.53,5.14-1.74,0-3.05-.62-3.92-1.88-.87-1.25-1.31-2.91-1.31-4.98,0-2.5,.54-5.47,1.63-8.9,1.09-3.43,2.64-6.99,4.65-10.69,2.01-3.7,4.38-7.13,7.1-10.28,2.72-3.16,5.71-5.74,8.97-7.75,3.42-2.11,7.66-3.42,11.71-3,2.04,.21,4.07,.96,5.6,2.33,.23,.21,.46,.44,.57,.73,.18,.46-.08,.8-.25,1.21Zm276.17,81.07c-3.43,3.7-6.12,5.55-8.08,5.55-.87,0-1.61-.41-2.2-1.22-.6-.82-.9-1.93-.9-3.35,0-2.5,1.03-4.9,3.1-7.18,2.07-2.28,4.78-4.46,8.16-6.53,3.37-2.07,7.07-4.08,11.1-6.04-4.03,8.81-7.75,15.07-11.18,18.77Zm24.31-59.55c-.07,.09-.15,.19-.23,.28-3.55,4.37-7.33,8.56-11.39,12.46-3.3,3.17-7.52,7.32-12.45,7.32-1.41,0-2.61-.57-3.59-1.71-.98-1.14-1.47-2.8-1.47-4.98,0-3.26,.87-6.91,2.61-10.94,1.74-4.02,4.11-7.92,7.1-11.67,2.99-3.75,6.45-6.83,10.36-9.22,2.71-1.66,5.71-2.84,8.86-3.31,3.18-.48,6.8-.41,7.65,3.39,.32,1.43,.12,2.93-.19,4.36-1.14,5.36-3.9,9.84-7.27,14.03Z"/>
  </g>
  <ellipse class="cls-2" cx="591.9" cy="1237.63" rx="21.04" ry="58.9"/>
  <path class="cls-2" d="M2287.36,1107.09c-1.71,3.44-3.53,6.83-5.42,10.17-3.82,6.73-7.98,13.27-12.41,19.61-8.84,12.63-18.77,24.5-29.46,35.61-15.45,16.08-31.94,28.97-49.45,38.65-17.52,9.69-34.93,14.53-52.23,14.53-11.55,0-20.62-2.06-27.2-6.18-6.6-4.12-11.34-9.06-14.22-14.84-2.89-5.77-4.64-11.23-5.26-16.39-.61-5.15-.92-8.75-.92-10.82,0-4.11,.09-7.11,.31-8.96,.2-1.86,.51-3.61,.92-5.26,18.55-2.05,36.99-6.49,55.33-13.29,18.33-6.8,35.13-15.56,50.38-26.28,15.24-10.71,27.4-22.88,36.47-36.48,9.06-13.6,13.6-28.23,13.6-43.9,0-16.48-4.85-27.51-14.53-33.08-9.69-5.56-19.89-8.35-30.6-8.35-18.96,0-37.92,5.57-56.87,16.7-18.96,11.13-36.27,25.66-51.92,43.59-15.67,17.93-28.13,37.1-37.4,57.5-5.76,12.69-9.73,24.93-11.91,36.74-2.2,3.6-4.44,7.13-6.74,10.56-10.52,15.67-21.24,28.24-32.15,37.72-10.92,9.49-21.54,14.22-31.83,14.22-7.84,0-14.64-2.68-20.4-8.04-5.78-5.35-10.51-11.95-14.22-19.78-3.71-7.83-6.7-15.87-8.96-24.12-2.27-8.24-4.02-15.04-5.26-20.4,7.01-.41,15.46-2.06,25.35-4.95,9.89-2.88,19.67-7.31,29.36-13.29,9.68-5.97,17.82-13.5,24.41-22.57,6.59-9.06,9.9-19.79,9.9-32.15,0-17.32-6.19-31.74-18.55-43.28-12.36-11.54-26.79-17.32-43.27-17.32-15.25,0-29.57,4.75-42.96,14.22-13.4,9.49-25.86,21.96-37.4,37.41-11.54,15.46-22.05,32.06-31.53,49.78-9.48,17.72-17.92,35.04-25.34,51.93,1.64-20.19,5.56-43.37,11.75-69.56,6.18-26.17,15.04-52.65,26.58-79.45,18.95-11.13,36.26-24.52,51.92-40.19,15.66-15.66,29.15-32.25,40.49-49.77,11.33-17.52,20.09-34.83,26.27-51.94,6.18-17.1,9.27-32.66,9.27-46.68,0-13.19-2.37-24.01-7.1-32.46-4.75-8.45-10.62-12.68-17.62-12.68-8.25,0-18.65,6.6-31.22,19.79-12.57,13.19-26.07,31.12-40.49,53.79-14.43,22.67-28.65,48.23-42.65,76.67-14.01,28.44-26.89,58.23-38.63,89.34-11.75,31.13-21.13,61.74-28.13,91.82-2.04,8.76-3.78,17.31-5.22,25.65-14.17,23.37-28.14,40.7-41.95,51.95-17.93,14.63-31.86,21.97-41.75,21.97-6.59,0-11.33-2.39-14.22-7.13-2.88-4.75-4.32-9.77-4.32-15.13,0-7.01,1.77-14.35,5.27-21.97,3.5-7.63,7.62-15.25,12.36-22.88,4.12-6.6,7.75-12.74,10.92-18.43,11.17-17.39,19.87-37.75,21.76-58.36,1.28-13.98-3.29-29.77-14.17-38.5-1.94-1.94-4.08-3.84-6.47-5.57-12.37-9.07-27.41-13.6-45.13-13.6s-33.79,4.12-50.69,12.36c-16.89,8.25-32.76,19.05-47.59,32.44-14.84,13.4-28.03,28.36-39.56,44.85-3.62,5.17-6.96,10.35-10.09,15.56l-.13-.12c-.37,.74-.75,1.47-1.13,2.21-3.16,5.38-6.06,10.79-8.71,16.22-4.89,8.63-10.15,17.23-15.82,25.78-9.68,14.64-19.88,26.7-30.59,36.18-10.72,9.48-21.02,14.22-30.91,14.22-3.71,0-7.11-1.34-10.2-4.02-3.09-2.68-4.64-7.31-4.64-13.91,0-9.07,1.95-18.34,5.88-27.83,3.91-9.48,7.93-19.57,12.05-30.3,4.11-10.71,6.18-22.25,6.18-34.62,0-14.42-4.23-27.61-12.67-39.57-8.45-11.95-21.54-17.93-39.25-17.93-14.02,0-27.93,4.01-41.73,12.05-13.81,8.04-27.1,18.46-39.87,31.23-6.28,6.29-12.34,12.8-18.16,19.52-2.99,3.45-5.91,6.96-8.77,10.53-2.53,3.15-5.05,7.8-8.18,10.18-2.11-10.6-1.55-22-3.2-32.77-1.64-10.61-4.19-21.12-8.49-30.99-9.49-21.8-26.76-39.1-43.65-55.85,7.56,18.28,11.64,37.94,12.28,57.7,1.56,48.09-17.2,98.23-55.79,128.21-17.83,13.86-38.71,21.01-59.58,28.71-25.52,9.42-52.91,13.65-80.09,12.64,7.66-35.69,10.36-74.11,2.04-109.64-24.29-136.25-140.64-224.74-257.28-285.25-41.16-21.36-80.3-42.7-117.38-64.05-37.12-21.35-67.34-44.99-90.71-70.9-23.39-25.93-35.06-57.18-35.06-93.78,0-29.48,8.12-62.26,24.39-98.36,42.48-94.32,123.63-155.5,223.07-181.16,36.47-9.41,76.86-12.97,110.4,4.16,71.38,36.47,35.97,118.05,13.35,173.19-11.7,28.47-21.87,55.92-30.49,82.34-8.65,26.45-12.96,50.32-12.96,71.67s5.57,38.38,16.77,51.09c11.17,12.71,27.94,21.6,50.31,26.68,17.27-27.45,35.3-60.47,54.12-99.12,18.79-38.62,34.79-79.29,48.01-121.99,13.2-42.69,19.82-82.84,19.82-120.46,0-47.77-14.24-86.4-42.68-115.89-28.47-29.48-77.75-44.22-147.88-44.22s-128.05,12.96-182.93,38.88c-54.89,25.92-101.64,59.73-140.25,101.4-38.64,41.7-68.36,86.16-89.19,133.43-20.84,47.27-31.25,91.76-31.25,133.43,0,46.77,11.94,86.92,35.83,120.46,20.32,28.53,45.28,53.52,73.1,74.73,31.27,23.83,66.55,42.79,100.36,63.11,17.38,10.44,34.76,20.89,52.13,31.33,39.24,23.58,78.78,47.39,112.52,78.34,41.59,38.17,74.03,89.51,77.31,147.01-8.84-7.88-17.58-15.88-26.42-23.69-31.85-28.14-64.17-55.83-98.47-80.95-67.14-49.18-144.1-89.41-228.85-92.71-65.32-2.54-132.43,16.7-184.3,57.02-6.86,5.34-13.21,10.99-19.07,16.94-39.96,40.52-57.26,94.63-57.26,152.79,0,62.02,16.78,113.86,50.31,155.54,107.06,133.04,288.91,146.53,445.5,118.76,66.86-11.86,134.55-31.09,187.87-73.13,27.68-21.83,50.2-49.42,66.96-80.3,6.72,.01,13.44-.15,20.15-.5,20.29-1.08,40.22-3.61,60.01-7.59,18.73-3.77,36.88-7.05,54.88-13.78,31.62-11.83,60.03-29.32,82.79-54.4,4.35-4.79,8.46-9.81,12.3-15.02,9.46-12.81,17.32-26.69,25.61-40.26,8.4-13.75,17.91-26.06,27.92-38.62,12.15-15.25,24.72-27.92,37.71-38.03,12.97-10.09,25.65-15.15,38.01-15.15,5.77,0,10.82,1.76,15.14,5.26,4.33,3.51,6.49,9.8,6.49,18.86s-1.44,17.73-4.32,27.21c-2.89,9.48-5.78,18.85-8.66,28.13-2.88,9.27-4.32,18.04-4.32,26.28,0,12.36,4.22,22.56,12.67,30.6,8.44,8.04,20.71,12.06,36.78,12.06s31.42-5.05,44.81-15.15c10.29-7.76,19.85-17.48,28.69-29.14-.15,2.22-.23,4.42-.23,6.59,0,18.13,5.07,31.74,15.16,40.81,10.1,9.02,21.93,13.6,35.52,13.6,15.66,0,30.42-5.81,44.22-17.31,13.81-11.55,28.93-27.21,45.42-47v3.1c.82,12.36,5.35,23.9,13.6,34.62,8.24,10.72,20.81,16.08,37.7,16.08,15.66,0,31.12-4.87,46.36-14.55,19.02-12.08,36.98-28.74,49.88-48.23-.34,5.79-.52,11.46-.52,17.01,0,14.43,1.33,24.94,4.02,31.53,2.67,6.59,5.97,10.72,9.89,12.37,3.91,1.64,7.31,2.47,10.2,2.47,7.83,0,13.8-2.16,17.93-6.49,4.11-4.33,8.44-12.68,12.98-25.04,3.71-9.9,8.34-21.64,13.91-35.25,5.56-13.6,11.94-27.61,19.16-42.04,7.21-14.43,15.24-27.83,24.11-40.19,8.85-12.37,18.43-22.36,28.74-29.99,10.29-7.62,21.22-11.44,32.76-11.44,8.65,0,15.35,2.27,20.09,6.8,4.73,4.54,7.11,10.51,7.11,17.93,0,9.08-3,16.8-8.96,23.19-5.98,6.4-13.51,11.75-22.56,16.08-9.07,4.32-17.93,7.73-26.59,10.2-8.65,2.47-15.86,4.33-21.63,5.56,0,9.49,1.44,20.72,4.33,33.7,2.87,12.99,7.2,25.66,12.98,38.03,5.76,12.36,13.38,22.66,22.87,30.91,9.47,8.24,20.6,12.37,33.38,12.37,15.66,0,30.9-5.88,45.74-17.62,13.8-10.93,26.43-24.98,37.92-42.14,2.11,16.46,8.98,30.5,20.61,42.14,14.22,14.22,34.51,21.33,60.88,21.33,22.26,0,43.99-5.16,65.22-15.46,21.22-10.31,40.58-24.73,58.11-43.28,12.56-13.3,22.71-27.47,30.11-44.23,7.19-16.28,12.13-33.87,13.8-51.61-2.05,2.43-3.2,6.48-4.66,9.42Zm-169.99-5.71c7.82-13.19,16.69-25.24,26.58-36.17,9.89-10.92,19.98-19.79,30.29-26.59,10.29-6.8,20.18-10.2,29.67-10.2,3.71,0,6.38,.83,8.03,2.47,1.64,1.66,2.48,4.75,2.48,9.28,0,11.54-3.93,22.98-11.75,34.32-7.83,11.34-17.83,21.74-29.98,31.22-12.16,9.49-24.83,17.31-38.02,23.5-13.19,6.18-25.14,9.89-35.85,11.13,4.53-12.78,10.71-25.76,18.55-38.96Zm-213.99-190.44c10.71-19.37,20.49-35.34,29.36-47.92,8.85-12.57,15.35-19.68,19.47-21.33v1.86c-.41,15.25-5.05,31.22-13.91,47.92-8.86,16.69-19.47,32.36-31.83,46.99-12.36,14.63-24.11,26.89-35.24,36.79,10.71-23.5,21.43-44.93,32.15-64.31Zm-962.18-347.15c6.88,2.46,6.89,20.06,.01,39.33-6.87,19.26-18.02,32.88-24.9,30.42-6.88-2.45-6.89-20.06-.01-39.32,6.87-19.26,18.02-32.88,24.9-30.43Zm-121.91,719.55c-19.68,26.43-47.04,46.22-77.68,58.05-34.3,13.25-73.37,14.43-109.67,11.96-30.91-2.1-61.56-8.08-91-17.75-6.07-1.99-12.08-4.14-18.04-6.44-20.56-7.95-40.41-17.74-59.19-29.3-31.09-19.14-60.95-45.54-69.24-81.1-7.93-34.04,6.59-71.16,32.71-94.37,26.11-23.22,62.24-33.34,97.15-31.94,34.92,1.4,68.73,13.52,99.39,30.28,34.62,18.91,65.17,43.2,94.99,68.41,29.94,25.3,59.77,51.07,93.26,71.64,1.27,.77,15.11,9.13,15.29,8.86-2.5,4-5.14,7.91-7.97,11.7Zm822.66-153.38c-.2,.25-.37,.54-.57,.78-10.72,14.64-21.93,28.98-33.67,43-11.75,14.01-23.41,25.64-34.95,34.91-11.54,9.28-22.05,13.93-31.52,13.93s-14.22-6.59-14.22-19.78c0-11.54,2.47-24.53,7.42-38.95,4.94-14.43,11.74-29.19,20.39-44.23,8.66-15.05,18.47-28.86,29.39-41.43,10.92-12.57,22.33-22.76,34.28-30.59s23.7-11.75,35.24-11.75c6.26,0,13.6,1.08,18.13,5.86,4.24,4.49,4.78,11.05,4.9,16.98,.13,6.68-.82,13.36-2.67,19.75-2.64,9.31-7.22,18.01-12.99,25.72-6.42,8.57-12.81,17.15-19.16,25.8Z"/>
</svg>